<svg width="1024" height="1024" viewBox="0 0 1024 1024" fill="none" xmlns="http://www.w3.org/2000/svg">
<rect width="1024" height="1024" rx="200" fill="#FA7315"/>
<path d="M633.5 132.696C630.5 159.696 606.389 189.696 590.5 202.696C580.91 210.542 540 234.696 512 227.696C516 194.196 537 167.696 552 155.196C567 142.696 608 128.696 633.5 132.696Z" fill="white"/>
<path d="M133.213 793.064C144.055 774.917 157.462 758.538 172.955 744.401C173.103 744.267 173.252 744.134 173.4 744C184.653 733.789 196.997 724.755 210.252 717.083C241.976 698.72 277.859 688.752 314.508 688.122C351.158 687.493 387.363 696.222 419.699 713.485C452.034 730.747 479.433 755.973 499.302 786.775L398.605 851.731C382.764 824.526 353.941 805.599 320.155 803.849C282.748 801.913 249.216 821.547 231.634 851.866L133.213 793.064Z" fill="white"/>
<path d="M317.658 603.878V688.009" stroke="white" stroke-width="94.795" stroke-linecap="round"/>
<path d="M317.5 201C436.517 201 533 297.483 533 416.5C533 535.517 436.517 632 317.5 632C198.483 632 102 535.517 102 416.5C102 297.483 198.483 201 317.5 201ZM320.716 323.224C267.424 323.224 224.224 366.425 224.224 419.717C224.224 473.008 267.425 516.209 320.716 516.209C374.007 516.209 417.208 473.008 417.208 419.717C417.208 366.425 374.007 323.224 320.716 323.224Z" fill="white"/>
<path d="M888 855.745H785.552L778.464 816.534C753.979 847.299 716.608 866 670.216 866C585.165 866 513 826.789 513 699.503V645.211C513 517.926 585.165 478.715 670.216 478.715C705.655 478.715 734.649 489.573 757.201 507.067V406.325C757.201 366.51 788.773 346 822.923 346C857.072 346 888 366.51 888 406.325V855.745ZM616.223 636.766V710.965C616.223 751.986 665.536 766.739 688.087 766.739C709.994 766.739 755.268 749.573 757.201 710.965V633.749C755.268 595.142 709.994 582.305 688.087 582.305C665.536 582.305 616.223 595.745 616.223 636.766Z" fill="white"/>
</svg>
