<svg width="1024" height="1024" viewBox="0 0 1024 1024" fill="none" xmlns="http://www.w3.org/2000/svg">
<rect width="1024" height="1024" rx="240" fill="url(#paint0_linear_1605_132)"/>
<path d="M291.549 645.544L264.414 600.995L175.316 655.264L202.451 699.813L247 672.678L291.549 645.544ZM247 672.678L202.451 699.813C249.991 777.863 399.64 921.559 613.507 849.971L596.949 800.506L580.392 751.041C432.644 800.498 326.636 703.148 291.549 645.544L247 672.678ZM596.949 800.506L613.507 849.971C736.42 808.827 804.22 740.858 823.6 668.184C841.267 601.938 814.211 518.262 737.657 506.352L729.638 557.894L721.62 609.437C712.139 607.962 731.743 607.765 722.799 641.302C715.569 668.413 683.487 716.532 580.392 751.041L596.949 800.506ZM729.638 557.894L737.657 506.352C708.825 501.867 680.635 507.343 655.651 522.941C631.731 537.874 613.586 560.256 599.63 585.428C572.16 634.974 554.824 706.475 545.1 794.798L596.949 800.506L648.798 806.214C658.03 722.361 673.502 667.339 690.869 636.014C699.332 620.751 706.612 614.111 710.898 611.435C714.12 609.424 716.915 608.705 721.62 609.437L729.638 557.894Z" fill="#FF8A3D"/>
<circle cx="304" cy="364" r="113" fill="#FF8A3D"/>
<path d="M817.952 336.904L574.512 372.748V279.074L817.952 250.698V336.904Z" fill="#FF8A3D" stroke="#FF8A3D" stroke-width="3.0241"/>
<defs>
<linearGradient id="paint0_linear_1605_132" x1="115.5" y1="35" x2="971.5" y2="1009.5" gradientUnits="userSpaceOnUse">
<stop stop-color="#FFF7ED"/>
<stop offset="0.705315" stop-color="#FFF7ED"/>
<stop offset="1" stop-color="#FFF7ED"/>
</linearGradient>
</defs>
</svg>
