<svg width="129" height="129" viewBox="0 0 129 129" fill="none" xmlns="http://www.w3.org/2000/svg">
<circle cx="64.0195" cy="64.0195" r="64.0195" fill="#FFF7ED"/>
<path d="M38.5857 79.8704L35.3423 74.5454L24.6923 81.0323L27.9357 86.3573L33.2607 83.1138L38.5857 79.8704ZM33.2607 83.1138L27.9357 86.3573C33.6183 95.6867 51.506 112.863 77.0699 104.306L75.0907 98.3933L73.1116 92.4807C55.4511 98.3923 42.7797 86.7559 38.5857 79.8704L33.2607 83.1138ZM75.0907 98.3933L77.0699 104.306C91.7619 99.3879 99.8661 91.2634 102.183 82.5767C104.294 74.6582 101.06 64.6562 91.9097 63.2326L90.9512 69.3935L89.9927 75.5545C88.8596 75.3782 91.2028 75.3546 90.1337 79.3634C89.2695 82.604 85.4347 88.3557 73.1116 92.4807L75.0907 98.3933ZM90.9512 69.3935L91.9097 63.2326C88.4634 62.6964 85.0938 63.351 82.1074 65.2155C79.2483 67.0004 77.0793 69.6759 75.4111 72.6847C72.1276 78.607 70.0554 87.1536 68.8931 97.711L75.0907 98.3933L81.2883 99.0756C82.3918 89.0525 84.2411 82.4756 86.3171 78.7313C87.3287 76.9068 88.1989 76.1132 88.7112 75.7934C89.0963 75.553 89.4304 75.467 89.9927 75.5545L90.9512 69.3935Z" fill="#FF8A3D"/>
<circle cx="40.0744" cy="46.217" r="13.5071" fill="#FF8A3D"/>
<path d="M101.507 42.9778L72.4082 47.262V36.0647L101.507 32.6741V42.9778Z" fill="#FF8A3D" stroke="#FF8A3D" stroke-width="0.361475"/>
</svg>
