<svg width="20" height="20" viewBox="0 0 20 20" fill="none" xmlns="http://www.w3.org/2000/svg">
<path fill-rule="evenodd" clip-rule="evenodd" d="M10 20C15.523 20 20 15.523 20 10C20 4.477 15.523 0 10 0C4.477 0 0 4.477 0 10C0 15.523 4.477 20 10 20ZM6.97 6.757C6.90402 6.5014 6.73966 6.28225 6.51275 6.14736C6.28584 6.01246 6.0148 5.97275 5.75873 6.0369C5.50266 6.10105 5.28235 6.26385 5.14583 6.48979C5.00932 6.71573 4.96768 6.98648 5.03 7.243L5.22 8H5C4.73478 8 4.48043 8.10536 4.29289 8.29289C4.10536 8.48043 4 8.73478 4 9C4 9.26522 4.10536 9.51957 4.29289 9.70711C4.48043 9.89464 4.73478 10 5 10H5.72L5.97 11H5C4.73478 11 4.48043 11.1054 4.29289 11.2929C4.10536 11.4804 4 11.7348 4 12C4 12.2652 4.10536 12.5196 4.29289 12.7071C4.48043 12.8946 4.73478 13 5 13H6.47L6.947 14.91C7.213 15.977 8.709 16.035 9.057 14.99L10 12.162L10.943 14.99C11.291 16.035 12.787 15.977 13.053 14.91L13.531 13H15C15.2652 13 15.5196 12.8946 15.7071 12.7071C15.8946 12.5196 16 12.2652 16 12C16 11.7348 15.8946 11.4804 15.7071 11.2929C15.5196 11.1054 15.2652 11 15 11H14.03L14.28 10H15C15.2652 10 15.5196 9.89464 15.7071 9.70711C15.8946 9.51957 16 9.26522 16 9C16 8.73478 15.8946 8.48043 15.7071 8.29289C15.5196 8.10536 15.2652 8 15 8H14.78L14.97 7.243C15.003 7.11526 15.0103 6.98227 14.9917 6.85167C14.973 6.72107 14.9287 6.59546 14.8613 6.48206C14.7939 6.36866 14.7047 6.26972 14.5989 6.19095C14.4931 6.11217 14.3727 6.05511 14.2447 6.02305C14.1168 5.99099 13.9837 5.98457 13.8533 6.00416C13.7228 6.02374 13.5975 6.06895 13.4846 6.13717C13.3717 6.20539 13.2734 6.29528 13.1954 6.40166C13.1173 6.50804 13.0611 6.62881 13.03 6.757L11.863 11.426L10.949 8.684C10.8828 8.48466 10.7555 8.31123 10.5851 8.18833C10.4148 8.06542 10.2101 7.99928 10 7.99928C9.78995 7.99928 9.58523 8.06542 9.41488 8.18833C9.24454 8.31123 9.11722 8.48466 9.051 8.684L8.137 11.426L6.97 6.757Z" fill="black"/>
</svg>
